<mxfile host="app.diagrams.net" modified="2023-05-14T16:56:16.664Z" agent="Mozilla/5.0 (X11; Linux x86_64) AppleWebKit/537.36 (KHTML, like Gecko) Chrome/113.0.0.0 Safari/537.36" etag="Bzxzc1YOAUmVp5wgcbST" version="21.3.0" type="device">
  <diagram name="Страница 1" id="lDuA6Zx0Fd1N5d9_Wdko">
    <mxGraphModel dx="1434" dy="801" grid="1" gridSize="10" guides="1" tooltips="1" connect="1" arrows="1" fold="1" page="1" pageScale="1" pageWidth="827" pageHeight="1169" math="0" shadow="0">
      <root>
        <mxCell id="0" />
        <mxCell id="1" parent="0" />
        <mxCell id="KRFqq4yZEoeAjCfu-sNb-26" style="edgeStyle=orthogonalEdgeStyle;rounded=0;orthogonalLoop=1;jettySize=auto;html=1;entryX=0;entryY=0.5;entryDx=0;entryDy=0;" edge="1" parent="1" source="KRFqq4yZEoeAjCfu-sNb-1" target="KRFqq4yZEoeAjCfu-sNb-9">
          <mxGeometry relative="1" as="geometry" />
        </mxCell>
        <mxCell id="KRFqq4yZEoeAjCfu-sNb-27" style="edgeStyle=orthogonalEdgeStyle;rounded=0;orthogonalLoop=1;jettySize=auto;html=1;entryX=0;entryY=0.5;entryDx=0;entryDy=0;" edge="1" parent="1" source="KRFqq4yZEoeAjCfu-sNb-1" target="KRFqq4yZEoeAjCfu-sNb-10">
          <mxGeometry relative="1" as="geometry" />
        </mxCell>
        <mxCell id="KRFqq4yZEoeAjCfu-sNb-28" style="edgeStyle=orthogonalEdgeStyle;rounded=0;orthogonalLoop=1;jettySize=auto;html=1;entryX=0;entryY=0.5;entryDx=0;entryDy=0;" edge="1" parent="1" source="KRFqq4yZEoeAjCfu-sNb-1" target="KRFqq4yZEoeAjCfu-sNb-11">
          <mxGeometry relative="1" as="geometry" />
        </mxCell>
        <mxCell id="KRFqq4yZEoeAjCfu-sNb-29" style="edgeStyle=orthogonalEdgeStyle;rounded=0;orthogonalLoop=1;jettySize=auto;html=1;entryX=0;entryY=0.5;entryDx=0;entryDy=0;" edge="1" parent="1" source="KRFqq4yZEoeAjCfu-sNb-1" target="KRFqq4yZEoeAjCfu-sNb-12">
          <mxGeometry relative="1" as="geometry" />
        </mxCell>
        <mxCell id="KRFqq4yZEoeAjCfu-sNb-1" value="Person" style="rounded=0;whiteSpace=wrap;html=1;" vertex="1" parent="1">
          <mxGeometry x="390" y="350" width="120" height="60" as="geometry" />
        </mxCell>
        <mxCell id="KRFqq4yZEoeAjCfu-sNb-2" value="ID" style="ellipse;whiteSpace=wrap;html=1;" vertex="1" parent="1">
          <mxGeometry x="150" y="300" width="100" height="50" as="geometry" />
        </mxCell>
        <mxCell id="KRFqq4yZEoeAjCfu-sNb-3" value="Name" style="ellipse;whiteSpace=wrap;html=1;" vertex="1" parent="1">
          <mxGeometry x="150" y="370" width="100" height="50" as="geometry" />
        </mxCell>
        <mxCell id="KRFqq4yZEoeAjCfu-sNb-5" value="" style="endArrow=none;html=1;rounded=0;exitX=0.99;exitY=0.64;exitDx=0;exitDy=0;exitPerimeter=0;" edge="1" parent="1" source="KRFqq4yZEoeAjCfu-sNb-2" target="KRFqq4yZEoeAjCfu-sNb-1">
          <mxGeometry width="50" height="50" relative="1" as="geometry">
            <mxPoint x="350" y="380" as="sourcePoint" />
            <mxPoint x="440" y="390" as="targetPoint" />
          </mxGeometry>
        </mxCell>
        <mxCell id="KRFqq4yZEoeAjCfu-sNb-6" value="" style="endArrow=none;html=1;rounded=0;entryX=-0.008;entryY=0.65;entryDx=0;entryDy=0;entryPerimeter=0;" edge="1" parent="1" source="KRFqq4yZEoeAjCfu-sNb-3" target="KRFqq4yZEoeAjCfu-sNb-1">
          <mxGeometry width="50" height="50" relative="1" as="geometry">
            <mxPoint x="390" y="440" as="sourcePoint" />
            <mxPoint x="370" y="390" as="targetPoint" />
          </mxGeometry>
        </mxCell>
        <mxCell id="KRFqq4yZEoeAjCfu-sNb-7" value="" style="endArrow=none;html=1;rounded=0;entryX=1;entryY=0.5;entryDx=0;entryDy=0;exitX=0;exitY=0.75;exitDx=0;exitDy=0;" edge="1" parent="1" source="KRFqq4yZEoeAjCfu-sNb-1">
          <mxGeometry width="50" height="50" relative="1" as="geometry">
            <mxPoint x="390" y="440" as="sourcePoint" />
            <mxPoint x="240" y="465" as="targetPoint" />
          </mxGeometry>
        </mxCell>
        <mxCell id="KRFqq4yZEoeAjCfu-sNb-8" value="F/M" style="text;html=1;align=center;verticalAlign=middle;resizable=0;points=[];autosize=1;strokeColor=none;fillColor=none;" vertex="1" parent="1">
          <mxGeometry x="175" y="490" width="40" height="30" as="geometry" />
        </mxCell>
        <mxCell id="KRFqq4yZEoeAjCfu-sNb-23" style="edgeStyle=orthogonalEdgeStyle;rounded=0;orthogonalLoop=1;jettySize=auto;html=1;entryX=0;entryY=0.5;entryDx=0;entryDy=0;" edge="1" parent="1" source="KRFqq4yZEoeAjCfu-sNb-9" target="KRFqq4yZEoeAjCfu-sNb-20">
          <mxGeometry relative="1" as="geometry" />
        </mxCell>
        <mxCell id="KRFqq4yZEoeAjCfu-sNb-24" style="edgeStyle=orthogonalEdgeStyle;rounded=0;orthogonalLoop=1;jettySize=auto;html=1;entryX=0;entryY=0.5;entryDx=0;entryDy=0;" edge="1" parent="1" source="KRFqq4yZEoeAjCfu-sNb-9" target="KRFqq4yZEoeAjCfu-sNb-21">
          <mxGeometry relative="1" as="geometry" />
        </mxCell>
        <mxCell id="KRFqq4yZEoeAjCfu-sNb-54" style="edgeStyle=orthogonalEdgeStyle;rounded=0;orthogonalLoop=1;jettySize=auto;html=1;entryX=0;entryY=0.5;entryDx=0;entryDy=0;" edge="1" parent="1" source="KRFqq4yZEoeAjCfu-sNb-9" target="KRFqq4yZEoeAjCfu-sNb-22">
          <mxGeometry relative="1" as="geometry" />
        </mxCell>
        <mxCell id="KRFqq4yZEoeAjCfu-sNb-9" value="children" style="rounded=0;whiteSpace=wrap;html=1;" vertex="1" parent="1">
          <mxGeometry x="600" y="150" width="120" height="60" as="geometry" />
        </mxCell>
        <mxCell id="KRFqq4yZEoeAjCfu-sNb-35" style="edgeStyle=orthogonalEdgeStyle;rounded=0;orthogonalLoop=1;jettySize=auto;html=1;entryX=0;entryY=0.5;entryDx=0;entryDy=0;" edge="1" parent="1" source="KRFqq4yZEoeAjCfu-sNb-10" target="KRFqq4yZEoeAjCfu-sNb-33">
          <mxGeometry relative="1" as="geometry" />
        </mxCell>
        <mxCell id="KRFqq4yZEoeAjCfu-sNb-36" style="edgeStyle=orthogonalEdgeStyle;rounded=0;orthogonalLoop=1;jettySize=auto;html=1;entryX=0;entryY=0.5;entryDx=0;entryDy=0;" edge="1" parent="1" source="KRFqq4yZEoeAjCfu-sNb-10" target="KRFqq4yZEoeAjCfu-sNb-34">
          <mxGeometry relative="1" as="geometry" />
        </mxCell>
        <mxCell id="KRFqq4yZEoeAjCfu-sNb-10" value="parents" style="rounded=0;whiteSpace=wrap;html=1;" vertex="1" parent="1">
          <mxGeometry x="600" y="400" width="120" height="60" as="geometry" />
        </mxCell>
        <mxCell id="KRFqq4yZEoeAjCfu-sNb-41" style="edgeStyle=orthogonalEdgeStyle;rounded=0;orthogonalLoop=1;jettySize=auto;html=1;" edge="1" parent="1" source="KRFqq4yZEoeAjCfu-sNb-11" target="KRFqq4yZEoeAjCfu-sNb-38">
          <mxGeometry relative="1" as="geometry" />
        </mxCell>
        <mxCell id="KRFqq4yZEoeAjCfu-sNb-43" style="edgeStyle=orthogonalEdgeStyle;rounded=0;orthogonalLoop=1;jettySize=auto;html=1;entryX=0;entryY=0.5;entryDx=0;entryDy=0;" edge="1" parent="1" source="KRFqq4yZEoeAjCfu-sNb-11" target="KRFqq4yZEoeAjCfu-sNb-40">
          <mxGeometry relative="1" as="geometry" />
        </mxCell>
        <mxCell id="KRFqq4yZEoeAjCfu-sNb-49" style="edgeStyle=orthogonalEdgeStyle;rounded=0;orthogonalLoop=1;jettySize=auto;html=1;entryX=0;entryY=0.5;entryDx=0;entryDy=0;" edge="1" parent="1" source="KRFqq4yZEoeAjCfu-sNb-11" target="KRFqq4yZEoeAjCfu-sNb-39">
          <mxGeometry relative="1" as="geometry" />
        </mxCell>
        <mxCell id="KRFqq4yZEoeAjCfu-sNb-11" value="siblings" style="rounded=0;whiteSpace=wrap;html=1;" vertex="1" parent="1">
          <mxGeometry x="600" y="555" width="120" height="60" as="geometry" />
        </mxCell>
        <mxCell id="KRFqq4yZEoeAjCfu-sNb-51" style="edgeStyle=orthogonalEdgeStyle;rounded=0;orthogonalLoop=1;jettySize=auto;html=1;entryX=0;entryY=0.5;entryDx=0;entryDy=0;" edge="1" parent="1" source="KRFqq4yZEoeAjCfu-sNb-12" target="KRFqq4yZEoeAjCfu-sNb-45">
          <mxGeometry relative="1" as="geometry" />
        </mxCell>
        <mxCell id="KRFqq4yZEoeAjCfu-sNb-52" style="edgeStyle=orthogonalEdgeStyle;rounded=0;orthogonalLoop=1;jettySize=auto;html=1;entryX=0;entryY=0.5;entryDx=0;entryDy=0;" edge="1" parent="1" source="KRFqq4yZEoeAjCfu-sNb-12" target="KRFqq4yZEoeAjCfu-sNb-46">
          <mxGeometry relative="1" as="geometry" />
        </mxCell>
        <mxCell id="KRFqq4yZEoeAjCfu-sNb-12" value="spouse" style="rounded=0;whiteSpace=wrap;html=1;" vertex="1" parent="1">
          <mxGeometry x="600" y="790" width="120" height="60" as="geometry" />
        </mxCell>
        <mxCell id="KRFqq4yZEoeAjCfu-sNb-19" value="gender" style="rounded=0;whiteSpace=wrap;html=1;" vertex="1" parent="1">
          <mxGeometry x="150" y="450" width="90" height="40" as="geometry" />
        </mxCell>
        <mxCell id="KRFqq4yZEoeAjCfu-sNb-20" value="son (id of person)" style="rounded=0;whiteSpace=wrap;html=1;" vertex="1" parent="1">
          <mxGeometry x="920" y="150" width="120" height="60" as="geometry" />
        </mxCell>
        <mxCell id="KRFqq4yZEoeAjCfu-sNb-21" value="daughter (id of person)" style="rounded=0;whiteSpace=wrap;html=1;" vertex="1" parent="1">
          <mxGeometry x="920" y="240" width="120" height="60" as="geometry" />
        </mxCell>
        <mxCell id="KRFqq4yZEoeAjCfu-sNb-22" value="child (id of person)" style="rounded=0;whiteSpace=wrap;html=1;" vertex="1" parent="1">
          <mxGeometry x="920" y="320" width="120" height="60" as="geometry" />
        </mxCell>
        <mxCell id="KRFqq4yZEoeAjCfu-sNb-33" value="mother (id of person)" style="rounded=0;whiteSpace=wrap;html=1;" vertex="1" parent="1">
          <mxGeometry x="920" y="400" width="120" height="60" as="geometry" />
        </mxCell>
        <mxCell id="KRFqq4yZEoeAjCfu-sNb-34" value="father (id of person)" style="rounded=0;whiteSpace=wrap;html=1;" vertex="1" parent="1">
          <mxGeometry x="920" y="480" width="120" height="60" as="geometry" />
        </mxCell>
        <mxCell id="KRFqq4yZEoeAjCfu-sNb-37" value="Has one of each" style="text;html=1;align=center;verticalAlign=middle;resizable=0;points=[];autosize=1;strokeColor=none;fillColor=none;" vertex="1" parent="1">
          <mxGeometry x="720" y="400" width="110" height="30" as="geometry" />
        </mxCell>
        <mxCell id="KRFqq4yZEoeAjCfu-sNb-38" value="brother (id of person)" style="rounded=0;whiteSpace=wrap;html=1;" vertex="1" parent="1">
          <mxGeometry x="920" y="555" width="120" height="60" as="geometry" />
        </mxCell>
        <mxCell id="KRFqq4yZEoeAjCfu-sNb-39" value="sister (id of person)" style="rounded=0;whiteSpace=wrap;html=1;" vertex="1" parent="1">
          <mxGeometry x="920" y="630" width="120" height="60" as="geometry" />
        </mxCell>
        <mxCell id="KRFqq4yZEoeAjCfu-sNb-40" value="sibling (id of person)" style="rounded=0;whiteSpace=wrap;html=1;" vertex="1" parent="1">
          <mxGeometry x="920" y="710" width="120" height="60" as="geometry" />
        </mxCell>
        <mxCell id="KRFqq4yZEoeAjCfu-sNb-44" value="Has multiple" style="text;html=1;align=center;verticalAlign=middle;resizable=0;points=[];autosize=1;strokeColor=none;fillColor=none;" vertex="1" parent="1">
          <mxGeometry x="720" y="555" width="90" height="30" as="geometry" />
        </mxCell>
        <mxCell id="KRFqq4yZEoeAjCfu-sNb-45" value="wife (id of person)" style="rounded=0;whiteSpace=wrap;html=1;" vertex="1" parent="1">
          <mxGeometry x="920" y="790" width="120" height="60" as="geometry" />
        </mxCell>
        <mxCell id="KRFqq4yZEoeAjCfu-sNb-46" value="husband (id of person)" style="rounded=0;whiteSpace=wrap;html=1;" vertex="1" parent="1">
          <mxGeometry x="920" y="870" width="120" height="60" as="geometry" />
        </mxCell>
        <mxCell id="KRFqq4yZEoeAjCfu-sNb-32" value="Has multiple" style="text;html=1;align=center;verticalAlign=middle;resizable=0;points=[];autosize=1;strokeColor=none;fillColor=none;" vertex="1" parent="1">
          <mxGeometry x="720" y="150" width="90" height="30" as="geometry" />
        </mxCell>
        <mxCell id="KRFqq4yZEoeAjCfu-sNb-53" value="Has none or only one" style="text;html=1;align=center;verticalAlign=middle;resizable=0;points=[];autosize=1;strokeColor=none;fillColor=none;" vertex="1" parent="1">
          <mxGeometry x="720" y="790" width="140" height="30" as="geometry" />
        </mxCell>
      </root>
    </mxGraphModel>
  </diagram>
</mxfile>
